%TF.GenerationSoftware,KiCad,Pcbnew,7.0.9*%
%TF.CreationDate,2024-04-10T21:38:01+01:00*%
%TF.ProjectId,ATF15xxProgBoard,41544631-3578-4785-9072-6f67426f6172,2*%
%TF.SameCoordinates,Original*%
%TF.FileFunction,Paste,Top*%
%TF.FilePolarity,Positive*%
%FSLAX46Y46*%
G04 Gerber Fmt 4.6, Leading zero omitted, Abs format (unit mm)*
G04 Created by KiCad (PCBNEW 7.0.9) date 2024-04-10 21:38:01*
%MOMM*%
%LPD*%
G01*
G04 APERTURE LIST*
G04 Aperture macros list*
%AMRoundRect*
0 Rectangle with rounded corners*
0 $1 Rounding radius*
0 $2 $3 $4 $5 $6 $7 $8 $9 X,Y pos of 4 corners*
0 Add a 4 corners polygon primitive as box body*
4,1,4,$2,$3,$4,$5,$6,$7,$8,$9,$2,$3,0*
0 Add four circle primitives for the rounded corners*
1,1,$1+$1,$2,$3*
1,1,$1+$1,$4,$5*
1,1,$1+$1,$6,$7*
1,1,$1+$1,$8,$9*
0 Add four rect primitives between the rounded corners*
20,1,$1+$1,$2,$3,$4,$5,0*
20,1,$1+$1,$4,$5,$6,$7,0*
20,1,$1+$1,$6,$7,$8,$9,0*
20,1,$1+$1,$8,$9,$2,$3,0*%
G04 Aperture macros list end*
%ADD10RoundRect,0.150000X-0.512500X-0.150000X0.512500X-0.150000X0.512500X0.150000X-0.512500X0.150000X0*%
%ADD11RoundRect,0.225000X-0.250000X0.225000X-0.250000X-0.225000X0.250000X-0.225000X0.250000X0.225000X0*%
%ADD12RoundRect,0.237500X0.237500X-0.300000X0.237500X0.300000X-0.237500X0.300000X-0.237500X-0.300000X0*%
%ADD13RoundRect,0.225000X-0.225000X-0.375000X0.225000X-0.375000X0.225000X0.375000X-0.225000X0.375000X0*%
%ADD14RoundRect,0.200000X0.200000X0.275000X-0.200000X0.275000X-0.200000X-0.275000X0.200000X-0.275000X0*%
%ADD15RoundRect,0.237500X-0.237500X0.250000X-0.237500X-0.250000X0.237500X-0.250000X0.237500X0.250000X0*%
%ADD16RoundRect,0.250000X-0.337500X-0.475000X0.337500X-0.475000X0.337500X0.475000X-0.337500X0.475000X0*%
%ADD17RoundRect,0.237500X-0.287500X-0.237500X0.287500X-0.237500X0.287500X0.237500X-0.287500X0.237500X0*%
%ADD18RoundRect,0.200000X-0.200000X-0.275000X0.200000X-0.275000X0.200000X0.275000X-0.200000X0.275000X0*%
%ADD19R,1.160000X0.600000*%
%ADD20R,1.160000X0.300000*%
%ADD21R,3.500000X2.400000*%
%ADD22R,0.550000X1.500000*%
%ADD23R,1.500000X0.550000*%
%ADD24RoundRect,0.237500X-0.300000X-0.237500X0.300000X-0.237500X0.300000X0.237500X-0.300000X0.237500X0*%
%ADD25RoundRect,0.237500X-0.250000X-0.237500X0.250000X-0.237500X0.250000X0.237500X-0.250000X0.237500X0*%
%ADD26RoundRect,0.250000X-0.475000X0.337500X-0.475000X-0.337500X0.475000X-0.337500X0.475000X0.337500X0*%
%ADD27RoundRect,0.237500X0.300000X0.237500X-0.300000X0.237500X-0.300000X-0.237500X0.300000X-0.237500X0*%
%ADD28RoundRect,0.250000X-0.275000X-0.350000X0.275000X-0.350000X0.275000X0.350000X-0.275000X0.350000X0*%
%ADD29RoundRect,0.237500X0.237500X-0.250000X0.237500X0.250000X-0.237500X0.250000X-0.237500X-0.250000X0*%
%ADD30RoundRect,0.237500X0.250000X0.237500X-0.250000X0.237500X-0.250000X-0.237500X0.250000X-0.237500X0*%
G04 APERTURE END LIST*
D10*
%TO.C,U5*%
X172339000Y-118668800D03*
X172339000Y-120568800D03*
X170064000Y-120568800D03*
X170064000Y-119618800D03*
X170064000Y-118668800D03*
%TD*%
D11*
%TO.C,C11*%
X171704000Y-123812600D03*
X171704000Y-122262600D03*
%TD*%
%TO.C,C10*%
X169879800Y-123812600D03*
X169879800Y-122262600D03*
%TD*%
D12*
%TO.C,C3*%
X161874200Y-85011600D03*
X161874200Y-83286600D03*
%TD*%
D13*
%TO.C,D1*%
X164262900Y-90805000D03*
X167562900Y-90805000D03*
%TD*%
D14*
%TO.C,R3*%
X165121032Y-66421000D03*
X166771032Y-66421000D03*
%TD*%
D15*
%TO.C,R5*%
X164642800Y-115673500D03*
X164642800Y-117498500D03*
%TD*%
D16*
%TO.C,C2*%
X160328700Y-92862400D03*
X162403700Y-92862400D03*
%TD*%
D17*
%TO.C,LED1*%
X161958900Y-64693800D03*
X160208900Y-64693800D03*
%TD*%
D18*
%TO.C,R10*%
X160388800Y-96139000D03*
X162038800Y-96139000D03*
%TD*%
%TO.C,R1*%
X161886400Y-66421000D03*
X160236400Y-66421000D03*
%TD*%
D19*
%TO.C,J9*%
X168401800Y-114428600D03*
X168401800Y-113628600D03*
D20*
X168401800Y-112978600D03*
X168401800Y-111978600D03*
X168401800Y-110478600D03*
X168401800Y-109478600D03*
D19*
X168401800Y-108828600D03*
X168401800Y-108028600D03*
X168401800Y-108028600D03*
X168401800Y-108828600D03*
D20*
X168401800Y-109978600D03*
X168401800Y-110978600D03*
X168401800Y-111478600D03*
X168401800Y-112478600D03*
D19*
X168401800Y-113628600D03*
X168401800Y-114428600D03*
%TD*%
D21*
%TO.C,Y1*%
X157095500Y-126619000D03*
X151895500Y-126619000D03*
%TD*%
D22*
%TO.C,U3*%
X149238200Y-109679400D03*
X150038200Y-109679400D03*
X150838200Y-109679400D03*
X151638200Y-109679400D03*
X152438200Y-109679400D03*
X153238200Y-109679400D03*
X154038200Y-109679400D03*
X154838200Y-109679400D03*
X155638200Y-109679400D03*
X156438200Y-109679400D03*
X157238200Y-109679400D03*
D23*
X158938200Y-111379400D03*
X158938200Y-112179400D03*
X158938200Y-112979400D03*
X158938200Y-113779400D03*
X158938200Y-114579400D03*
X158938200Y-115379400D03*
X158938200Y-116179400D03*
X158938200Y-116979400D03*
X158938200Y-117779400D03*
X158938200Y-118579400D03*
X158938200Y-119379400D03*
D22*
X157238200Y-121079400D03*
X156438200Y-121079400D03*
X155638200Y-121079400D03*
X154838200Y-121079400D03*
X154038200Y-121079400D03*
X153238200Y-121079400D03*
X152438200Y-121079400D03*
X151638200Y-121079400D03*
X150838200Y-121079400D03*
X150038200Y-121079400D03*
X149238200Y-121079400D03*
D23*
X147538200Y-119379400D03*
X147538200Y-118579400D03*
X147538200Y-117779400D03*
X147538200Y-116979400D03*
X147538200Y-116179400D03*
X147538200Y-115379400D03*
X147538200Y-114579400D03*
X147538200Y-113779400D03*
X147538200Y-112979400D03*
X147538200Y-112179400D03*
X147538200Y-111379400D03*
%TD*%
D24*
%TO.C,C4*%
X146497500Y-106680000D03*
X148222500Y-106680000D03*
%TD*%
D16*
%TO.C,C9*%
X147781100Y-102590600D03*
X149856100Y-102590600D03*
%TD*%
D25*
%TO.C,R7*%
X162917500Y-112572800D03*
X164742500Y-112572800D03*
%TD*%
%TO.C,R6*%
X162917500Y-109876800D03*
X164742500Y-109876800D03*
%TD*%
D14*
%TO.C,R11*%
X162038800Y-97764600D03*
X160388800Y-97764600D03*
%TD*%
D12*
%TO.C,C8*%
X148640800Y-127460000D03*
X148640800Y-125735000D03*
%TD*%
D26*
%TO.C,C1*%
X169189400Y-94234000D03*
X169189400Y-96309000D03*
%TD*%
D27*
%TO.C,C5*%
X155940300Y-106680000D03*
X154215300Y-106680000D03*
%TD*%
D28*
%TO.C,L1*%
X164610400Y-98780600D03*
X166910400Y-98780600D03*
%TD*%
D14*
%TO.C,R9*%
X169775950Y-66421000D03*
X171425950Y-66421000D03*
%TD*%
D17*
%TO.C,LED2*%
X166843532Y-64693800D03*
X165093532Y-64693800D03*
%TD*%
D10*
%TO.C,U4*%
X164752900Y-94230600D03*
X164752900Y-95180600D03*
X164752900Y-96130600D03*
X167027900Y-96130600D03*
X167027900Y-94230600D03*
%TD*%
D29*
%TO.C,R4*%
X164642800Y-105992300D03*
X164642800Y-104167300D03*
%TD*%
D12*
%TO.C,C7*%
X159989400Y-128016000D03*
X159989400Y-126291000D03*
%TD*%
D14*
%TO.C,R12*%
X171018200Y-90805000D03*
X169368200Y-90805000D03*
%TD*%
D16*
%TO.C,C6*%
X172004900Y-104698800D03*
X169929900Y-104698800D03*
%TD*%
D30*
%TO.C,R8*%
X161745300Y-107492800D03*
X159920300Y-107492800D03*
%TD*%
D17*
%TO.C,LED3*%
X171498450Y-64693800D03*
X169748450Y-64693800D03*
%TD*%
M02*
